# MagicaVoxel @ Ephtracy

# group
o Mecha01_Gun_L

# material
mtllib -2-Mecha01_Gun_L.mtl
usemtl palette

# normals
vn -1 0 0
vn 1 0 0
vn 0 0 -1
vn 0 0 1
vn 0 -1 0
vn 0 1 0

# texcoords
vt 0.0214844 0.5
vt 0.595703 0.5
vt 0.845703 0.5

# verts
v -0.9 1 -1.6
v -0.9 1 -1.4
v -0.9 1.2 -1.6
v -0.9 1.2 -1.4
v -0.8 0.7 -1.6
v -0.8 0.7 -1.4
v -0.8 1 -1.6
v -0.8 1 -1.4
v -0.3 0.3 -1.6
v -0.3 0.3 -1.4
v -0.3 0.7 -1.6
v -0.3 0.7 -1.4
v -0.3 0.8 -1.6
v -0.3 0.8 -1.4
v -0.3 1 -1.6
v -0.3 1 -1.5
v -0.3 1 -1.4
v -0.2 0.5 -1.7
v -0.2 0.5 -1.6
v -0.2 0.5 -1.4
v -0.2 0.5 -1.3
v -0.2 0.8 -1.7
v -0.2 0.8 -1.6
v -0.2 0.8 -1.4
v -0.2 0.8 -1.3
v -0.1 0.3 -1.6
v -0.1 0.3 -1.4
v -0.1 0.4 -1.6
v -0.1 0.4 -1.4
v -0.1 1.1 -1.6
v -0.1 1.1 -1.4
v -0.1 1.2 -1.6
v -0.1 1.2 -1.4
v -0.8 1.1 -1.6
v -0.8 1.1 -1.4
v -0.8 1.2 -1.6
v -0.8 1.2 -1.4
v -0.7 0.8 -1.6
v -0.7 0.8 -1.4
v -0.7 1 -1.6
v -0.7 1 -1.4
v -0.2 0.3 -1.6
v -0.2 0.3 -1.4
v -0.2 0.4 -1.6
v -0.2 0.4 -1.4
v -0.1 0.5 -1.7
v -0.1 0.5 -1.6
v -0.1 0.5 -1.4
v -0.1 0.5 -1.3
v -0.1 0.8 -1.7
v -0.1 0.8 -1.6
v -0.1 0.8 -1.4
v -0.1 0.8 -1.3
v 0 0.3 -1.6
v 0 0.3 -1.4
v 0 0.5 -1.6
v 0 0.5 -1.5
v 0 0.7 -1.6
v 0 0.7 -1.5
v 0 0.9 -1.5
v 0 0.9 -1.4
v 0 1.1 -1.5
v 0 1.1 -1.4
v 0 1.2 -1.6
v 0 1.2 -1.4
v 0.1 0.5 -1.6
v 0.1 0.5 -1.5
v 0.1 0.7 -1.6
v 0.1 0.7 -1.5
v 0.1 0.9 -1.5
v 0.1 0.9 -1.4
v 0.1 1.1 -1.5
v 0.1 1.1 -1.4
v -0.2 0.5 -1.7
v -0.2 0.8 -1.7
v -0.1 0.5 -1.7
v -0.1 0.8 -1.7
v -0.9 1 -1.6
v -0.9 1.2 -1.6
v -0.8 0.7 -1.6
v -0.8 1 -1.6
v -0.8 1.1 -1.6
v -0.8 1.2 -1.6
v -0.7 0.8 -1.6
v -0.7 1 -1.6
v -0.3 0.3 -1.6
v -0.3 0.7 -1.6
v -0.3 0.8 -1.6
v -0.3 1 -1.6
v -0.2 0.3 -1.6
v -0.2 0.4 -1.6
v -0.2 0.5 -1.6
v -0.2 0.8 -1.6
v -0.1 0.3 -1.6
v -0.1 0.4 -1.6
v -0.1 0.5 -1.6
v -0.1 0.8 -1.6
v -0.1 1.1 -1.6
v -0.1 1.2 -1.6
v 0 0.3 -1.6
v 0 0.5 -1.6
v 0 0.7 -1.6
v 0 1.2 -1.6
v 0.1 0.5 -1.6
v 0.1 0.7 -1.6
v 0 0.9 -1.5
v 0 1.1 -1.5
v 0.1 0.9 -1.5
v 0.1 1.1 -1.5
v 0 0.5 -1.5
v 0 0.7 -1.5
v 0.1 0.5 -1.5
v 0.1 0.7 -1.5
v -0.9 1 -1.4
v -0.9 1.2 -1.4
v -0.8 0.7 -1.4
v -0.8 1 -1.4
v -0.8 1.1 -1.4
v -0.8 1.2 -1.4
v -0.7 0.8 -1.4
v -0.7 1 -1.4
v -0.4 1 -1.4
v -0.4 1.1 -1.4
v -0.3 0.3 -1.4
v -0.3 0.7 -1.4
v -0.3 0.8 -1.4
v -0.3 1 -1.4
v -0.3 1.1 -1.4
v -0.2 0.3 -1.4
v -0.2 0.4 -1.4
v -0.2 0.5 -1.4
v -0.2 0.8 -1.4
v -0.1 0.3 -1.4
v -0.1 0.4 -1.4
v -0.1 0.5 -1.4
v -0.1 0.8 -1.4
v -0.1 1.1 -1.4
v -0.1 1.2 -1.4
v 0 0.3 -1.4
v 0 0.9 -1.4
v 0 1.1 -1.4
v 0 1.2 -1.4
v 0.1 0.9 -1.4
v 0.1 1.1 -1.4
v -0.2 0.5 -1.3
v -0.2 0.8 -1.3
v -0.1 0.5 -1.3
v -0.1 0.8 -1.3
v -0.3 0.3 -1.6
v -0.2 0.3 -1.6
v -0.1 0.3 -1.6
v 0 0.3 -1.6
v -0.3 0.3 -1.4
v -0.2 0.3 -1.4
v -0.1 0.3 -1.4
v 0 0.3 -1.4
v -0.2 0.4 -1.6
v -0.1 0.4 -1.6
v -0.2 0.4 -1.4
v -0.1 0.4 -1.4
v -0.2 0.5 -1.7
v -0.1 0.5 -1.7
v -0.2 0.5 -1.6
v -0.1 0.5 -1.6
v 0 0.5 -1.6
v 0.1 0.5 -1.6
v 0 0.5 -1.5
v 0.1 0.5 -1.5
v -0.2 0.5 -1.4
v -0.1 0.5 -1.4
v -0.2 0.5 -1.3
v -0.1 0.5 -1.3
v -0.8 0.7 -1.6
v -0.3 0.7 -1.6
v -0.8 0.7 -1.4
v -0.3 0.7 -1.4
v 0 0.9 -1.5
v 0.1 0.9 -1.5
v 0 0.9 -1.4
v 0.1 0.9 -1.4
v -0.9 1 -1.6
v -0.8 1 -1.6
v -0.7 1 -1.6
v -0.3 1 -1.6
v -0.4 1 -1.5
v -0.3 1 -1.5
v -0.9 1 -1.4
v -0.8 1 -1.4
v -0.7 1 -1.4
v -0.4 1 -1.4
v -0.3 1 -1.4
v 0 0.7 -1.6
v 0.1 0.7 -1.6
v 0 0.7 -1.5
v 0.1 0.7 -1.5
v -0.2 0.8 -1.7
v -0.1 0.8 -1.7
v -0.7 0.8 -1.6
v -0.3 0.8 -1.6
v -0.2 0.8 -1.6
v -0.1 0.8 -1.6
v -0.7 0.8 -1.4
v -0.3 0.8 -1.4
v -0.2 0.8 -1.4
v -0.1 0.8 -1.4
v -0.2 0.8 -1.3
v -0.1 0.8 -1.3
v -0.8 1.1 -1.6
v -0.1 1.1 -1.6
v -0.4 1.1 -1.5
v -0.3 1.1 -1.5
v 0 1.1 -1.5
v 0.1 1.1 -1.5
v -0.8 1.1 -1.4
v -0.4 1.1 -1.4
v -0.3 1.1 -1.4
v -0.1 1.1 -1.4
v 0 1.1 -1.4
v 0.1 1.1 -1.4
v -0.9 1.2 -1.6
v -0.8 1.2 -1.6
v -0.1 1.2 -1.6
v 0 1.2 -1.6
v -0.9 1.2 -1.4
v -0.8 1.2 -1.4
v -0.1 1.2 -1.4
v 0 1.2 -1.4

# faces
f 1/3/1 2/3/1 3/3/1
f 3/3/1 2/3/1 4/3/1
f 5/3/1 6/3/1 7/3/1
f 7/3/1 6/3/1 8/3/1
f 9/3/1 10/3/1 11/3/1
f 11/3/1 10/3/1 12/3/1
f 13/3/1 14/3/1 15/3/1
f 15/3/1 14/3/1 16/3/1
f 16/3/1 14/3/1 17/3/1
f 18/3/1 19/3/1 22/3/1
f 22/3/1 19/3/1 23/3/1
f 20/3/1 21/3/1 24/3/1
f 24/3/1 21/3/1 25/3/1
f 26/3/1 27/3/1 28/3/1
f 28/3/1 27/3/1 29/3/1
f 30/3/1 31/3/1 32/3/1
f 32/3/1 31/3/1 33/3/1
f 36/3/2 35/3/2 34/3/2
f 37/3/2 35/3/2 36/3/2
f 40/3/2 39/3/2 38/3/2
f 41/3/2 39/3/2 40/3/2
f 44/3/2 43/3/2 42/3/2
f 45/3/2 43/3/2 44/3/2
f 50/3/2 47/3/2 46/3/2
f 51/3/2 47/3/2 50/3/2
f 52/3/2 49/3/2 48/3/2
f 53/3/2 49/3/2 52/3/2
f 56/3/2 55/3/2 54/3/2
f 57/3/2 55/3/2 56/3/2
f 59/3/2 55/3/2 57/3/2
f 60/3/2 55/3/2 59/3/2
f 60/3/2 59/3/2 58/3/2
f 61/3/2 55/3/2 60/3/2
f 62/3/2 60/3/2 58/3/2
f 64/3/2 62/3/2 58/3/2
f 64/3/2 63/3/2 62/3/2
f 65/3/2 63/3/2 64/3/2
f 68/3/2 67/3/2 66/3/2
f 69/3/2 67/3/2 68/3/2
f 72/3/2 71/3/2 70/3/2
f 73/3/2 71/3/2 72/3/2
f 74/3/3 75/3/3 76/3/3
f 76/3/3 75/3/3 77/3/3
f 78/3/3 79/3/3 81/3/3
f 81/3/3 79/3/3 82/3/3
f 82/3/3 79/3/3 83/3/3
f 80/3/3 81/3/3 84/3/3
f 81/3/3 82/3/3 84/3/3
f 84/3/3 82/3/3 85/3/3
f 80/3/3 84/3/3 87/3/3
f 87/3/3 84/3/3 88/3/3
f 85/3/3 82/3/3 89/3/3
f 87/3/3 88/3/3 90/3/3
f 88/3/3 89/3/3 90/3/3
f 86/3/3 87/3/3 90/3/3
f 90/3/3 89/3/3 91/3/3
f 91/3/3 89/3/3 92/3/3
f 92/3/3 89/3/3 93/3/3
f 91/1/3 92/1/3 95/1/3
f 95/1/3 92/1/3 96/1/3
f 93/3/3 89/3/3 97/3/3
f 89/3/3 82/3/3 98/3/3
f 97/3/3 89/3/3 98/3/3
f 96/3/3 97/3/3 100/3/3
f 98/3/3 99/3/3 100/3/3
f 97/3/3 98/3/3 100/3/3
f 95/3/3 96/3/3 100/3/3
f 94/3/3 95/3/3 100/3/3
f 100/3/3 99/3/3 101/3/3
f 101/3/3 99/3/3 102/3/3
f 102/3/3 99/3/3 103/3/3
f 101/3/3 102/3/3 104/3/3
f 104/3/3 102/3/3 105/3/3
f 106/3/3 107/3/3 108/3/3
f 108/3/3 107/3/3 109/3/3
f 112/3/4 111/3/4 110/3/4
f 113/3/4 111/3/4 112/3/4
f 117/3/4 115/3/4 114/3/4
f 118/3/4 115/3/4 117/3/4
f 119/3/4 115/3/4 118/3/4
f 120/3/4 117/3/4 116/3/4
f 120/3/4 118/3/4 117/3/4
f 121/3/4 118/3/4 120/3/4
f 122/3/4 118/3/4 121/3/4
f 123/3/4 118/3/4 122/3/4
f 125/3/4 120/3/4 116/3/4
f 126/3/4 120/3/4 125/3/4
f 127/2/4 123/2/4 122/2/4
f 128/2/4 123/2/4 127/2/4
f 129/3/4 126/3/4 125/3/4
f 129/3/4 125/3/4 124/3/4
f 129/3/4 128/3/4 127/3/4
f 129/3/4 127/3/4 126/3/4
f 130/3/4 128/3/4 129/3/4
f 131/3/4 128/3/4 130/3/4
f 132/3/4 128/3/4 131/3/4
f 134/1/4 131/1/4 130/1/4
f 135/1/4 131/1/4 134/1/4
f 136/3/4 128/3/4 132/3/4
f 137/3/4 128/3/4 136/3/4
f 139/3/4 137/3/4 136/3/4
f 139/3/4 138/3/4 137/3/4
f 139/3/4 136/3/4 135/3/4
f 139/3/4 134/3/4 133/3/4
f 139/3/4 135/3/4 134/3/4
f 140/3/4 138/3/4 139/3/4
f 141/3/4 138/3/4 140/3/4
f 142/3/4 138/3/4 141/3/4
f 143/3/4 141/3/4 140/3/4
f 144/3/4 141/3/4 143/3/4
f 147/3/4 146/3/4 145/3/4
f 148/3/4 146/3/4 147/3/4
f 149/3/5 150/3/5 153/3/5
f 153/3/5 150/3/5 154/3/5
f 151/3/5 152/3/5 155/3/5
f 155/3/5 152/3/5 156/3/5
f 157/1/5 158/1/5 159/1/5
f 159/1/5 158/1/5 160/1/5
f 161/3/5 162/3/5 163/3/5
f 163/3/5 162/3/5 164/3/5
f 165/3/5 166/3/5 167/3/5
f 167/3/5 166/3/5 168/3/5
f 169/3/5 170/3/5 171/3/5
f 171/3/5 170/3/5 172/3/5
f 173/3/5 174/3/5 175/3/5
f 175/3/5 174/3/5 176/3/5
f 177/3/5 178/3/5 179/3/5
f 179/3/5 178/3/5 180/3/5
f 183/3/5 184/3/5 185/3/5
f 185/3/5 184/3/5 186/3/5
f 181/3/5 182/3/5 187/3/5
f 187/3/5 182/3/5 188/3/5
f 183/3/5 185/3/5 189/3/5
f 185/2/5 186/2/5 190/2/5
f 189/3/5 185/3/5 190/3/5
f 190/2/5 186/2/5 191/2/5
f 194/3/6 193/3/6 192/3/6
f 195/3/6 193/3/6 194/3/6
f 200/3/6 197/3/6 196/3/6
f 201/3/6 197/3/6 200/3/6
f 202/3/6 199/3/6 198/3/6
f 203/3/6 199/3/6 202/3/6
f 206/3/6 205/3/6 204/3/6
f 207/3/6 205/3/6 206/3/6
f 210/3/6 209/3/6 208/3/6
f 211/3/6 209/3/6 210/3/6
f 214/3/6 210/3/6 208/3/6
f 215/2/6 211/2/6 210/2/6
f 215/3/6 210/3/6 214/3/6
f 216/3/6 209/3/6 211/3/6
f 216/2/6 211/2/6 215/2/6
f 217/3/6 209/3/6 216/3/6
f 218/3/6 213/3/6 212/3/6
f 219/3/6 213/3/6 218/3/6
f 224/3/6 221/3/6 220/3/6
f 225/3/6 221/3/6 224/3/6
f 226/3/6 223/3/6 222/3/6
f 227/3/6 223/3/6 226/3/6
