# MagicaVoxel @ Ephtracy

# group
o Mecha01_Arm1_L

# material
mtllib -4-Mecha01_Arm1_L.mtl
usemtl palette

# normals
vn -1 0 0
vn 1 0 0
vn 0 0 -1
vn 0 0 1
vn 0 -1 0
vn 0 1 0

# texcoords
vt 0.595703 0.5
vt 0.623047 0.5
vt 0.658203 0.5
vt 0.783203 0.5

# verts
v -0.8 2 -1.6
v -0.8 2 -1.4
v -0.8 2.3 -1.6
v -0.8 2.3 -1.4
v -0.8 2.4 -1.6
v -0.8 2.4 -1.4
v -0.8 2.6 -1.4
v -0.8 2.6 -1.3
v -0.8 2.8 -1.6
v -0.8 2.8 -1.3
v -0.7 1.9 -1.6
v -0.7 1.9 -1.4
v -0.7 2 -1.8
v -0.7 2 -1.7
v -0.7 2 -1.6
v -0.7 2 -1.4
v -0.7 2 -1.3
v -0.7 2.3 -1.8
v -0.7 2.3 -1.7
v -0.7 2.3 -1.6
v -0.7 2.3 -1.4
v -0.7 2.3 -1.3
v -0.7 2.4 -1.8
v -0.7 2.4 -1.6
v -0.7 2.4 -1.4
v -0.7 2.4 -1.3
v -0.7 2.6 -1.4
v -0.7 2.6 -1.3
v -0.7 2.8 -1.8
v -0.7 2.8 -1.6
v -0.6 2 -1.7
v -0.6 2 -1.6
v -0.6 2.3 -1.8
v -0.6 2.3 -1.7
v -0.6 2.3 -1.6
v -0.6 2.4 -1.8
v -0.6 2.4 -1.6
v -0.5 2.4 -1.8
v -0.5 2.4 -1.7
v -0.5 2.5 -1.8
v -0.5 2.5 -1.7
v -0.4 2.7 -1.5
v -0.4 2.7 -1.4
v -0.4 2.8 -1.5
v -0.4 2.8 -1.4
v -0.6 2.4 -1.8
v -0.6 2.4 -1.7
v -0.6 2.5 -1.8
v -0.6 2.5 -1.7
v -0.5 1.9 -1.6
v -0.5 1.9 -1.4
v -0.5 2 -1.6
v -0.5 2 -1.4
v -0.5 2 -1.3
v -0.5 2.3 -1.4
v -0.5 2.3 -1.3
v -0.5 2.4 -1.4
v -0.5 2.4 -1.3
v -0.5 2.5 -1.8
v -0.5 2.5 -1.7
v -0.5 2.6 -1.8
v -0.5 2.6 -1.7
v -0.5 2.6 -1.4
v -0.5 2.6 -1.3
v -0.5 2.7 -1.6
v -0.5 2.7 -1.4
v -0.5 2.8 -1.6
v -0.5 2.8 -1.4
v -0.4 2.3 -1.5
v -0.4 2.3 -1.4
v -0.4 2.4 -1.6
v -0.4 2.4 -1.5
v -0.4 2.4 -1.4
v -0.4 2.5 -1.7
v -0.4 2.5 -1.6
v -0.4 2.6 -1.7
v -0.4 2.6 -1.6
v -0.4 2.6 -1.5
v -0.4 2.6 -1.4
v -0.4 2.6 -1.3
v -0.4 2.7 -1.6
v -0.4 2.7 -1.5
v -0.4 2.8 -1.4
v -0.4 2.8 -1.3
v -0.3 2 -1.8
v -0.3 2 -1.4
v -0.3 2.3 -1.5
v -0.3 2.3 -1.4
v -0.3 2.4 -1.6
v -0.3 2.4 -1.5
v -0.3 2.4 -1.4
v -0.3 2.5 -1.8
v -0.3 2.5 -1.6
v -0.3 2.6 -1.8
v -0.3 2.6 -1.7
v -0.3 2.6 -1.6
v -0.3 2.8 -1.8
v -0.3 2.8 -1.7
v -0.3 2.8 -1.6
v -0.3 2.8 -1.5
v -0.3 2.8 -1.4
v -0.7 2 -1.8
v -0.7 2.3 -1.8
v -0.7 2.4 -1.8
v -0.7 2.8 -1.8
v -0.6 2.3 -1.8
v -0.6 2.4 -1.8
v -0.6 2.5 -1.8
v -0.5 2.3 -1.8
v -0.5 2.4 -1.8
v -0.5 2.5 -1.8
v -0.5 2.6 -1.8
v -0.3 2 -1.8
v -0.3 2.5 -1.8
v -0.3 2.6 -1.8
v -0.3 2.8 -1.8
v -0.6 2.4 -1.7
v -0.6 2.5 -1.7
v -0.5 2.4 -1.7
v -0.5 2.5 -1.7
v -0.5 2.6 -1.7
v -0.4 2.5 -1.7
v -0.4 2.6 -1.7
v -0.8 2 -1.6
v -0.8 2.3 -1.6
v -0.8 2.4 -1.6
v -0.8 2.8 -1.6
v -0.7 1.9 -1.6
v -0.7 2 -1.6
v -0.7 2.3 -1.6
v -0.7 2.4 -1.6
v -0.7 2.8 -1.6
v -0.6 2 -1.6
v -0.6 2.3 -1.6
v -0.6 2.4 -1.6
v -0.5 1.9 -1.6
v -0.5 2 -1.6
v -0.4 2.4 -1.5
v -0.4 2.6 -1.5
v -0.4 2.7 -1.5
v -0.4 2.8 -1.5
v -0.3 2.4 -1.5
v -0.3 2.8 -1.5
v -0.5 2.7 -1.4
v -0.5 2.8 -1.4
v -0.4 2.7 -1.4
v -0.4 2.8 -1.4
v -0.7 2 -1.7
v -0.7 2.3 -1.7
v -0.6 2 -1.7
v -0.6 2.3 -1.7
v -0.5 2.7 -1.6
v -0.5 2.8 -1.6
v -0.4 2.4 -1.6
v -0.4 2.5 -1.6
v -0.4 2.6 -1.6
v -0.4 2.7 -1.6
v -0.3 2.4 -1.6
v -0.3 2.5 -1.6
v -0.3 2.6 -1.6
v -0.3 2.8 -1.6
v -0.4 2.3 -1.5
v -0.4 2.4 -1.5
v -0.3 2.3 -1.5
v -0.3 2.4 -1.5
v -0.8 2 -1.4
v -0.8 2.3 -1.4
v -0.8 2.4 -1.4
v -0.8 2.6 -1.4
v -0.7 1.9 -1.4
v -0.7 2 -1.4
v -0.7 2.3 -1.4
v -0.7 2.4 -1.4
v -0.7 2.6 -1.4
v -0.5 1.9 -1.4
v -0.5 2 -1.4
v -0.5 2.3 -1.4
v -0.5 2.4 -1.4
v -0.5 2.6 -1.4
v -0.4 2.3 -1.4
v -0.4 2.4 -1.4
v -0.4 2.6 -1.4
v -0.4 2.8 -1.4
v -0.3 2 -1.4
v -0.3 2.3 -1.4
v -0.3 2.4 -1.4
v -0.3 2.8 -1.4
v -0.8 2.6 -1.3
v -0.8 2.8 -1.3
v -0.7 2 -1.3
v -0.7 2.3 -1.3
v -0.7 2.4 -1.3
v -0.7 2.6 -1.3
v -0.7 2.8 -1.3
v -0.5 2 -1.3
v -0.5 2.3 -1.3
v -0.5 2.4 -1.3
v -0.5 2.6 -1.3
v -0.4 2.6 -1.3
v -0.4 2.8 -1.3
v -0.7 1.9 -1.6
v -0.5 1.9 -1.6
v -0.7 1.9 -1.4
v -0.5 1.9 -1.4
v -0.7 2 -1.8
v -0.3 2 -1.8
v -0.7 2 -1.7
v -0.6 2 -1.7
v -0.5 2 -1.7
v -0.8 2 -1.6
v -0.7 2 -1.6
v -0.6 2 -1.6
v -0.5 2 -1.6
v -0.8 2 -1.4
v -0.7 2 -1.4
v -0.5 2 -1.4
v -0.3 2 -1.4
v -0.7 2 -1.3
v -0.5 2 -1.3
v -0.7 2.4 -1.8
v -0.6 2.4 -1.8
v -0.8 2.4 -1.6
v -0.7 2.4 -1.6
v -0.6 2.4 -1.6
v -0.4 2.4 -1.5
v -0.3 2.4 -1.5
v -0.8 2.4 -1.4
v -0.7 2.4 -1.4
v -0.5 2.4 -1.4
v -0.4 2.4 -1.4
v -0.3 2.4 -1.4
v -0.7 2.4 -1.3
v -0.5 2.4 -1.3
v -0.6 2.5 -1.8
v -0.5 2.5 -1.8
v -0.6 2.5 -1.7
v -0.5 2.5 -1.7
v -0.5 2.6 -1.8
v -0.3 2.6 -1.8
v -0.5 2.6 -1.7
v -0.4 2.6 -1.7
v -0.3 2.6 -1.7
v -0.4 2.6 -1.6
v -0.3 2.6 -1.6
v -0.8 2.6 -1.4
v -0.7 2.6 -1.4
v -0.5 2.6 -1.4
v -0.4 2.6 -1.4
v -0.8 2.6 -1.3
v -0.7 2.6 -1.3
v -0.5 2.6 -1.3
v -0.4 2.6 -1.3
v -0.7 2.3 -1.8
v -0.6 2.3 -1.8
v -0.7 2.3 -1.7
v -0.6 2.3 -1.7
v -0.8 2.3 -1.6
v -0.7 2.3 -1.6
v -0.4 2.3 -1.5
v -0.3 2.3 -1.5
v -0.8 2.3 -1.4
v -0.7 2.3 -1.4
v -0.5 2.3 -1.4
v -0.4 2.3 -1.4
v -0.3 2.3 -1.4
v -0.7 2.3 -1.3
v -0.5 2.3 -1.3
v -0.6 2.4 -1.8
v -0.5 2.4 -1.8
v -0.6 2.4 -1.7
v -0.5 2.4 -1.7
v -0.4 2.4 -1.6
v -0.3 2.4 -1.6
v -0.4 2.4 -1.5
v -0.3 2.4 -1.5
v -0.5 2.5 -1.8
v -0.3 2.5 -1.8
v -0.5 2.5 -1.7
v -0.4 2.5 -1.7
v -0.4 2.5 -1.6
v -0.3 2.5 -1.6
v -0.5 2.7 -1.6
v -0.4 2.7 -1.6
v -0.4 2.7 -1.5
v -0.5 2.7 -1.4
v -0.4 2.7 -1.4
v -0.7 2.8 -1.8
v -0.3 2.8 -1.8
v -0.6 2.8 -1.7
v -0.3 2.8 -1.7
v -0.8 2.8 -1.6
v -0.7 2.8 -1.6
v -0.6 2.8 -1.6
v -0.5 2.8 -1.6
v -0.3 2.8 -1.6
v -0.4 2.8 -1.5
v -0.3 2.8 -1.5
v -0.6 2.8 -1.4
v -0.5 2.8 -1.4
v -0.4 2.8 -1.4
v -0.3 2.8 -1.4
v -0.8 2.8 -1.3
v -0.7 2.8 -1.3
v -0.4 2.8 -1.3

# faces
f 1/1/1 2/1/1 3/1/1
f 3/1/1 2/1/1 4/1/1
f 5/2/1 6/2/1 7/2/1
f 5/2/1 7/2/1 9/2/1
f 7/2/1 8/2/1 9/2/1
f 9/2/1 8/2/1 10/2/1
f 11/4/1 12/4/1 15/4/1
f 15/4/1 12/4/1 16/4/1
f 13/1/1 14/1/1 18/1/1
f 18/1/1 14/1/1 19/1/1
f 16/1/1 17/1/1 21/1/1
f 21/1/1 17/1/1 22/1/1
f 20/3/1 21/3/1 24/3/1
f 24/3/1 21/3/1 25/3/1
f 25/1/1 26/1/1 27/1/1
f 27/1/1 26/1/1 28/1/1
f 23/2/1 24/2/1 29/2/1
f 29/2/1 24/2/1 30/2/1
f 31/3/1 32/3/1 34/3/1
f 34/3/1 32/3/1 35/3/1
f 33/3/1 34/3/1 36/3/1
f 34/3/1 35/3/1 36/3/1
f 36/3/1 35/3/1 37/3/1
f 38/1/1 39/1/1 40/1/1
f 40/1/1 39/1/1 41/1/1
f 42/1/1 43/1/1 44/1/1
f 44/1/1 43/1/1 45/1/1
f 48/2/2 47/2/2 46/2/2
f 49/2/2 47/2/2 48/2/2
f 52/4/2 51/4/2 50/4/2
f 53/4/2 51/4/2 52/4/2
f 55/1/2 54/1/2 53/1/2
f 56/1/2 54/1/2 55/1/2
f 61/2/2 60/2/2 59/2/2
f 62/2/2 60/2/2 61/2/2
f 63/1/2 58/1/2 57/1/2
f 64/1/2 58/1/2 63/1/2
f 67/4/2 66/4/2 65/4/2
f 68/4/2 66/4/2 67/4/2
f 72/3/2 70/3/2 69/3/2
f 73/3/2 70/3/2 72/3/2
f 75/3/2 72/3/2 71/3/2
f 76/3/2 75/3/2 74/3/2
f 77/3/2 72/3/2 75/3/2
f 77/3/2 75/3/2 76/3/2
f 78/3/2 72/3/2 77/3/2
f 81/4/2 78/4/2 77/4/2
f 82/4/2 78/4/2 81/4/2
f 83/1/2 80/1/2 79/1/2
f 84/1/2 80/1/2 83/1/2
f 87/1/2 86/1/2 85/1/2
f 88/1/2 86/1/2 87/1/2
f 89/1/2 87/1/2 85/1/2
f 90/1/2 87/1/2 89/1/2
f 92/1/2 89/1/2 85/1/2
f 93/1/2 89/1/2 92/1/2
f 97/2/2 95/2/2 94/2/2
f 98/1/2 96/1/2 95/1/2
f 98/2/2 95/2/2 97/2/2
f 99/1/2 96/1/2 98/1/2
f 100/1/2 91/1/2 90/1/2
f 101/1/2 91/1/2 100/1/2
f 102/1/3 103/1/3 106/1/3
f 104/2/3 105/2/3 107/2/3
f 107/2/3 105/2/3 108/2/3
f 102/1/3 106/1/3 109/1/3
f 106/3/3 107/3/3 109/3/3
f 109/3/3 107/3/3 110/3/3
f 108/2/3 105/2/3 111/2/3
f 111/2/3 105/2/3 112/2/3
f 109/1/3 110/1/3 113/1/3
f 102/1/3 109/1/3 113/1/3
f 110/1/3 111/1/3 113/1/3
f 113/1/3 111/1/3 114/1/3
f 112/2/3 105/2/3 115/2/3
f 115/2/3 105/2/3 116/2/3
f 117/3/3 118/3/3 119/3/3
f 119/3/3 118/3/3 120/3/3
f 120/3/3 121/3/3 122/3/3
f 122/3/3 121/3/3 123/3/3
f 124/1/3 125/1/3 129/1/3
f 129/1/3 125/1/3 130/1/3
f 126/2/3 127/2/3 131/2/3
f 131/2/3 127/2/3 132/2/3
f 129/1/3 130/1/3 133/1/3
f 128/4/3 129/4/3 133/4/3
f 130/3/3 131/3/3 134/3/3
f 133/1/3 130/1/3 134/1/3
f 134/3/3 131/3/3 135/3/3
f 128/4/3 133/4/3 136/4/3
f 136/4/3 133/4/3 137/4/3
f 138/1/3 139/1/3 142/1/3
f 140/1/3 141/1/3 142/1/3
f 139/1/3 140/1/3 142/1/3
f 142/1/3 141/1/3 143/1/3
f 144/1/3 145/1/3 146/1/3
f 146/1/3 145/1/3 147/1/3
f 150/1/4 149/1/4 148/1/4
f 151/1/4 149/1/4 150/1/4
f 157/1/4 153/1/4 152/1/4
f 158/1/4 155/1/4 154/1/4
f 159/1/4 155/1/4 158/1/4
f 160/1/4 157/1/4 156/1/4
f 161/1/4 153/1/4 157/1/4
f 161/1/4 157/1/4 160/1/4
f 164/1/4 163/1/4 162/1/4
f 165/1/4 163/1/4 164/1/4
f 171/1/4 167/1/4 166/1/4
f 172/1/4 167/1/4 171/1/4
f 173/2/4 169/2/4 168/2/4
f 174/2/4 169/2/4 173/2/4
f 175/4/4 171/4/4 170/4/4
f 176/4/4 171/4/4 175/4/4
f 177/3/4 173/3/4 172/3/4
f 178/3/4 173/3/4 177/3/4
f 180/1/4 177/1/4 176/1/4
f 180/3/4 178/3/4 177/3/4
f 181/1/4 179/1/4 178/1/4
f 181/3/4 178/3/4 180/3/4
f 182/1/4 179/1/4 181/1/4
f 184/1/4 180/1/4 176/1/4
f 185/1/4 180/1/4 184/1/4
f 186/1/4 182/1/4 181/1/4
f 186/1/4 183/1/4 182/1/4
f 187/1/4 183/1/4 186/1/4
f 193/2/4 189/2/4 188/2/4
f 194/2/4 189/2/4 193/2/4
f 195/1/4 191/1/4 190/1/4
f 196/1/4 191/1/4 195/1/4
f 197/1/4 193/1/4 192/1/4
f 197/1/4 194/1/4 193/1/4
f 198/1/4 194/1/4 197/1/4
f 199/1/4 194/1/4 198/1/4
f 200/1/4 194/1/4 199/1/4
f 201/4/5 202/4/5 203/4/5
f 203/4/5 202/4/5 204/4/5
f 205/1/5 206/1/5 207/1/5
f 207/1/5 206/1/5 208/1/5
f 208/1/5 206/1/5 209/1/5
f 208/3/5 209/3/5 212/3/5
f 209/1/5 206/1/5 213/1/5
f 212/3/5 209/3/5 213/3/5
f 210/1/5 211/1/5 214/1/5
f 214/1/5 211/1/5 215/1/5
f 213/1/5 206/1/5 216/1/5
f 216/1/5 206/1/5 217/1/5
f 215/1/5 216/1/5 218/1/5
f 218/1/5 216/1/5 219/1/5
f 220/2/5 221/2/5 223/2/5
f 223/2/5 221/2/5 224/2/5
f 222/2/5 223/2/5 227/2/5
f 227/2/5 223/2/5 228/2/5
f 225/1/5 226/1/5 230/1/5
f 230/1/5 226/1/5 231/1/5
f 228/1/5 229/1/5 232/1/5
f 232/1/5 229/1/5 233/1/5
f 234/2/5 235/2/5 236/2/5
f 236/2/5 235/2/5 237/2/5
f 238/2/5 239/2/5 240/2/5
f 240/2/5 239/2/5 241/2/5
f 241/2/5 239/2/5 242/2/5
f 241/1/5 242/1/5 243/1/5
f 243/1/5 242/1/5 244/1/5
f 245/2/5 246/2/5 249/2/5
f 249/2/5 246/2/5 250/2/5
f 247/1/5 248/1/5 251/1/5
f 251/1/5 248/1/5 252/1/5
f 255/1/6 254/1/6 253/1/6
f 256/1/6 254/1/6 255/1/6
f 261/1/6 258/1/6 257/1/6
f 262/1/6 258/1/6 261/1/6
f 264/1/6 260/1/6 259/1/6
f 265/1/6 260/1/6 264/1/6
f 266/1/6 263/1/6 262/1/6
f 267/1/6 263/1/6 266/1/6
f 270/3/6 269/3/6 268/3/6
f 271/3/6 269/3/6 270/3/6
f 274/1/6 273/1/6 272/1/6
f 275/1/6 273/1/6 274/1/6
f 278/1/6 277/1/6 276/1/6
f 279/1/6 277/1/6 278/1/6
f 280/1/6 277/1/6 279/1/6
f 281/1/6 277/1/6 280/1/6
f 284/4/6 283/4/6 282/4/6
f 285/4/6 284/4/6 282/4/6
f 286/4/6 284/4/6 285/4/6
f 289/2/6 288/2/6 287/2/6
f 290/2/6 288/2/6 289/2/6
f 292/2/6 289/2/6 287/2/6
f 293/1/6 290/1/6 289/1/6
f 293/2/6 289/2/6 292/2/6
f 294/1/6 290/1/6 293/1/6
f 295/1/6 290/1/6 294/1/6
f 298/1/6 293/1/6 292/1/6
f 298/4/6 294/4/6 293/4/6
f 299/4/6 294/4/6 298/4/6
f 300/1/6 297/1/6 296/1/6
f 301/1/6 297/1/6 300/1/6
f 302/2/6 292/2/6 291/2/6
f 303/1/6 299/1/6 298/1/6
f 303/2/6 292/2/6 302/2/6
f 303/1/6 298/1/6 292/1/6
f 303/1/6 300/1/6 299/1/6
f 304/1/6 300/1/6 303/1/6
