# MagicaVoxel @ Ephtracy

# group
o Mecha01_Foot_R

# material
mtllib -6-Mecha01_Foot_R.mtl
usemtl palette

# normals
vn -1 0 0
vn 1 0 0
vn 0 0 1
vn 0 0 -1
vn 0 -1 0
vn 0 1 0

# texcoords
vt 0.595703 0.5
vt 0.623047 0.5
vt 0.658203 0.5
vt 0.783203 0.5

# verts
v -1.1 0 0.6
v -1.1 0 0.4
v -1.1 0.1 0.6
v -1.1 0.1 0.4
v -0.9 0 0.8
v -0.9 0 0.6
v -0.9 0.1 0.6
v -0.9 0.1 0.4
v -0.9 0.2 0.8
v -0.9 0.2 0.6
v -0.9 0.4 0.6
v -0.9 0.4 0.4
v -0.7 0 0.4
v -0.7 0 0.2
v -0.7 0.2 0.8
v -0.7 0.2 0.6
v -0.7 0.3 0.8
v -0.7 0.3 0.6
v -0.7 0.4 0.6
v -0.7 0.4 0.4
v -0.7 0.4 0.2
v -0.7 0.5 0.6
v -0.7 0.5 0.4
v -0.6 0.3 0.8
v -0.6 0.3 0.7
v -0.6 0.4 0.8
v -0.6 0.4 0.7
v -0.5 0.2 0.8
v -0.5 0.2 0.7
v -0.5 0.3 0.8
v -0.5 0.3 0.7
v -0.4 0.3 0.7
v -0.4 0.3 0.5
v -0.4 0.4 0.7
v -0.4 0.4 0.5
v -0.2 0.1 0.8
v -0.2 0.1 0.7
v -0.2 0.1 0.6
v -0.2 0.1 0.4
v -0.2 0.2 0.8
v -0.2 0.2 0.7
v -0.2 0.2 0.6
v -0.2 0.2 0.4
v -0.1 0.2 0.6
v -0.1 0.2 0.4
v -0.1 0.3 0.6
v -0.1 0.3 0.4
v 0.1 0 0.9
v 0.1 0 0.8
v 0.1 0.1 0.9
v 0.1 0.1 0.8
v -0.6 0.2 0.8
v -0.6 0.2 0.7
v -0.6 0.3 0.8
v -0.6 0.3 0.7
v -0.5 0 0.4
v -0.5 0 0.2
v -0.5 0.1 0.8
v -0.5 0.1 0.7
v -0.5 0.1 0.4
v -0.5 0.2 0.8
v -0.5 0.2 0.7
v -0.5 0.2 0.4
v -0.5 0.3 0.6
v -0.5 0.3 0.5
v -0.5 0.4 0.5
v -0.5 0.4 0.4
v -0.5 0.4 0.2
v -0.5 0.5 0.6
v -0.5 0.5 0.4
v -0.3 0.1 0.7
v -0.3 0.1 0.6
v -0.3 0.1 0.4
v -0.3 0.2 0.8
v -0.3 0.2 0.7
v -0.3 0.2 0.4
v -0.3 0.4 0.8
v -0.3 0.4 0.4
v 0.1 0 0.7
v 0.1 0 0.6
v 0.1 0.1 0.8
v 0.1 0.1 0.7
v 0.1 0.1 0.6
v 0.1 0.1 0.4
v 0.1 0.2 0.8
v 0.1 0.2 0.7
v 0.1 0.3 0.6
v 0.1 0.3 0.4
v 0.3 0 0.9
v 0.3 0 0.7
v 0.3 0 0.6
v 0.3 0 0.4
v 0.3 0.1 0.9
v 0.3 0.1 0.7
v 0.3 0.1 0.6
v 0.3 0.1 0.4
v 0.1 0 0.9
v 0.1 0.1 0.9
v 0.3 0 0.9
v 0.3 0.1 0.9
v -0.9 0 0.8
v -0.9 0.2 0.8
v -0.7 0.2 0.8
v -0.7 0.3 0.8
v -0.6 0.2 0.8
v -0.6 0.3 0.8
v -0.6 0.4 0.8
v -0.5 0.1 0.8
v -0.5 0.2 0.8
v -0.5 0.3 0.8
v -0.3 0.2 0.8
v -0.3 0.4 0.8
v -0.2 0.1 0.8
v -0.2 0.2 0.8
v 0.1 0 0.8
v 0.1 0.1 0.8
v 0.1 0.2 0.8
v -0.6 0.2 0.7
v -0.6 0.3 0.7
v -0.5 0.1 0.7
v -0.5 0.2 0.7
v -0.5 0.3 0.7
v -0.3 0.1 0.7
v -0.3 0.2 0.7
v -1.1 0 0.6
v -1.1 0.1 0.6
v -0.9 0 0.6
v -0.9 0.1 0.6
v -0.9 0.2 0.6
v -0.9 0.4 0.6
v -0.7 0.2 0.6
v -0.7 0.3 0.6
v -0.7 0.4 0.6
v -0.7 0.5 0.6
v -0.6 0.3 0.6
v -0.6 0.4 0.6
v -0.5 0.3 0.6
v -0.5 0.5 0.6
v -0.2 0.1 0.6
v -0.2 0.2 0.6
v -0.1 0.2 0.6
v -0.1 0.3 0.6
v 0.1 0 0.6
v 0.1 0.1 0.6
v 0.1 0.3 0.6
v 0.3 0 0.6
v 0.3 0.1 0.6
v -0.5 0.3 0.5
v -0.5 0.4 0.5
v -0.4 0.3 0.5
v -0.4 0.4 0.5
v -0.6 0.3 0.7
v -0.6 0.4 0.7
v -0.4 0.3 0.7
v -0.4 0.4 0.7
v -0.2 0.1 0.7
v -0.2 0.2 0.7
v 0.1 0 0.7
v 0.1 0.1 0.7
v 0.1 0.2 0.7
v 0.3 0 0.7
v 0.3 0.1 0.7
v -1.1 0 0.4
v -1.1 0.1 0.4
v -0.9 0 0.4
v -0.9 0.1 0.4
v -0.9 0.4 0.4
v -0.7 0 0.4
v -0.7 0.4 0.4
v -0.7 0.5 0.4
v -0.5 0 0.4
v -0.5 0.1 0.4
v -0.5 0.2 0.4
v -0.5 0.4 0.4
v -0.5 0.5 0.4
v -0.4 0.1 0.4
v -0.4 0.2 0.4
v -0.4 0.4 0.4
v -0.3 0.1 0.4
v -0.3 0.2 0.4
v -0.3 0.4 0.4
v -0.2 0.1 0.4
v -0.2 0.2 0.4
v -0.1 0.2 0.4
v -0.1 0.3 0.4
v 0.1 0 0.4
v 0.1 0.1 0.4
v 0.1 0.3 0.4
v 0.3 0 0.4
v 0.3 0.1 0.4
v -0.7 0 0.2
v -0.7 0.4 0.2
v -0.5 0 0.2
v -0.5 0.4 0.2
v 0.1 0 0.9
v 0.3 0 0.9
v -0.9 0 0.8
v 0.1 0 0.8
v -0.3 0 0.7
v 0.1 0 0.7
v 0.3 0 0.7
v -1.1 0 0.6
v -0.9 0 0.6
v -0.3 0 0.6
v 0.1 0 0.6
v 0.3 0 0.6
v -1.1 0 0.4
v -0.9 0 0.4
v -0.7 0 0.4
v -0.5 0 0.4
v 0.1 0 0.4
v 0.3 0 0.4
v -0.7 0 0.2
v -0.5 0 0.2
v -0.5 0.2 0.8
v -0.3 0.2 0.8
v -0.5 0.2 0.7
v -0.3 0.2 0.7
v -0.6 0.3 0.8
v -0.5 0.3 0.8
v -0.6 0.3 0.7
v -0.5 0.3 0.7
v 0.1 0.1 0.9
v 0.3 0.1 0.9
v -0.5 0.1 0.8
v -0.2 0.1 0.8
v 0.1 0.1 0.8
v -0.5 0.1 0.7
v -0.3 0.1 0.7
v -0.2 0.1 0.7
v 0.1 0.1 0.7
v 0.3 0.1 0.7
v -1.1 0.1 0.6
v -0.9 0.1 0.6
v -0.3 0.1 0.6
v -0.2 0.1 0.6
v 0.1 0.1 0.6
v 0.3 0.1 0.6
v -1.1 0.1 0.4
v -0.9 0.1 0.4
v -0.3 0.1 0.4
v -0.2 0.1 0.4
v 0.1 0.1 0.4
v 0.3 0.1 0.4
v -0.9 0.2 0.8
v -0.7 0.2 0.8
v -0.6 0.2 0.8
v -0.5 0.2 0.8
v -0.2 0.2 0.8
v 0.1 0.2 0.8
v -0.6 0.2 0.7
v -0.5 0.2 0.7
v -0.2 0.2 0.7
v 0.1 0.2 0.7
v -0.9 0.2 0.6
v -0.7 0.2 0.6
v -0.2 0.2 0.6
v -0.1 0.2 0.6
v -0.2 0.2 0.4
v -0.1 0.2 0.4
v -0.7 0.3 0.8
v -0.6 0.3 0.8
v -0.6 0.3 0.7
v -0.4 0.3 0.7
v -0.7 0.3 0.6
v -0.6 0.3 0.6
v -0.5 0.3 0.6
v -0.1 0.3 0.6
v 0.1 0.3 0.6
v -0.5 0.3 0.5
v -0.4 0.3 0.5
v -0.1 0.3 0.4
v 0.1 0.3 0.4
v -0.6 0.4 0.8
v -0.3 0.4 0.8
v -0.6 0.4 0.7
v -0.4 0.4 0.7
v -0.9 0.4 0.6
v -0.7 0.4 0.6
v -0.5 0.4 0.5
v -0.4 0.4 0.5
v -0.9 0.4 0.4
v -0.7 0.4 0.4
v -0.5 0.4 0.4
v -0.4 0.4 0.4
v -0.3 0.4 0.4
v -0.7 0.4 0.2
v -0.5 0.4 0.2
v -0.7 0.5 0.6
v -0.5 0.5 0.6
v -0.7 0.5 0.4
v -0.5 0.5 0.4

# faces
f 3/4/1 2/4/1 1/4/1
f 4/4/1 2/4/1 3/4/1
f 7/2/1 6/2/1 5/2/1
f 9/2/1 7/2/1 5/2/1
f 9/2/1 8/2/1 7/2/1
f 10/2/1 8/2/1 9/2/1
f 11/2/1 8/2/1 10/2/1
f 12/2/1 8/2/1 11/2/1
f 17/2/1 16/2/1 15/2/1
f 18/2/1 16/2/1 17/2/1
f 20/2/1 14/2/1 13/2/1
f 21/2/1 14/2/1 20/2/1
f 22/4/1 20/4/1 19/4/1
f 23/4/1 20/4/1 22/4/1
f 26/1/1 25/1/1 24/1/1
f 27/1/1 25/1/1 26/1/1
f 30/1/1 29/1/1 28/1/1
f 31/1/1 29/1/1 30/1/1
f 34/1/1 33/1/1 32/1/1
f 35/1/1 33/1/1 34/1/1
f 40/2/1 37/2/1 36/2/1
f 41/2/1 37/2/1 40/2/1
f 42/1/1 39/1/1 38/1/1
f 43/1/1 39/1/1 42/1/1
f 46/1/1 45/1/1 44/1/1
f 47/1/1 45/1/1 46/1/1
f 50/4/1 49/4/1 48/4/1
f 51/4/1 49/4/1 50/4/1
f 52/2/2 53/2/2 54/2/2
f 54/2/2 53/2/2 55/2/2
f 56/2/2 57/2/2 60/2/2
f 58/2/2 59/2/2 61/2/2
f 61/2/2 59/2/2 62/2/2
f 60/2/2 57/2/2 63/2/2
f 64/4/2 65/4/2 66/4/2
f 63/2/2 57/2/2 67/2/2
f 67/2/2 57/2/2 68/2/2
f 64/4/2 66/4/2 69/4/2
f 66/4/2 67/4/2 69/4/2
f 69/4/2 67/4/2 70/4/2
f 71/3/2 72/3/2 75/3/2
f 72/3/2 73/3/2 75/3/2
f 75/3/2 73/3/2 76/3/2
f 74/1/2 75/1/2 77/1/2
f 75/1/2 76/1/2 77/1/2
f 77/1/2 76/1/2 78/1/2
f 79/3/2 80/3/2 82/3/2
f 82/3/2 80/3/2 83/3/2
f 81/2/2 82/2/2 85/2/2
f 85/2/2 82/2/2 86/2/2
f 83/1/2 84/1/2 87/1/2
f 87/1/2 84/1/2 88/1/2
f 89/4/2 90/4/2 93/4/2
f 93/4/2 90/4/2 94/4/2
f 91/4/2 92/4/2 95/4/2
f 95/4/2 92/4/2 96/4/2
f 99/4/3 98/4/3 97/4/3
f 100/4/3 98/4/3 99/4/3
f 103/2/3 102/2/3 101/2/3
f 105/2/3 103/2/3 101/2/3
f 105/2/3 104/2/3 103/2/3
f 106/2/3 104/2/3 105/2/3
f 108/2/3 105/2/3 101/2/3
f 109/2/3 105/2/3 108/2/3
f 110/1/3 107/1/3 106/1/3
f 111/1/3 110/1/3 109/1/3
f 112/1/3 107/1/3 110/1/3
f 112/1/3 110/1/3 111/1/3
f 113/2/3 108/2/3 101/2/3
f 115/2/3 113/2/3 101/2/3
f 115/2/3 114/2/3 113/2/3
f 116/2/3 114/2/3 115/2/3
f 117/2/3 114/2/3 116/2/3
f 121/4/3 119/4/3 118/4/3
f 122/4/3 119/4/3 121/4/3
f 123/3/3 121/3/3 120/3/3
f 124/3/3 121/3/3 123/3/3
f 127/4/3 126/4/3 125/4/3
f 128/4/3 126/4/3 127/4/3
f 131/2/3 130/2/3 129/2/3
f 132/2/3 130/2/3 131/2/3
f 133/2/3 130/2/3 132/2/3
f 135/2/3 133/2/3 132/2/3
f 136/4/3 134/4/3 133/4/3
f 136/2/3 133/2/3 135/2/3
f 137/4/3 136/4/3 135/4/3
f 138/4/3 134/4/3 136/4/3
f 138/4/3 136/4/3 137/4/3
f 141/1/3 140/1/3 139/1/3
f 144/1/3 141/1/3 139/1/3
f 144/1/3 142/1/3 141/1/3
f 145/1/3 142/1/3 144/1/3
f 146/4/3 144/4/3 143/4/3
f 147/4/3 144/4/3 146/4/3
f 150/3/3 149/3/3 148/3/3
f 151/3/3 149/3/3 150/3/3
f 152/1/4 153/1/4 154/1/4
f 154/1/4 153/1/4 155/1/4
f 156/2/4 157/2/4 159/2/4
f 159/2/4 157/2/4 160/2/4
f 158/4/4 159/4/4 161/4/4
f 161/4/4 159/4/4 162/4/4
f 163/4/4 164/4/4 165/4/4
f 165/4/4 164/4/4 166/4/4
f 165/2/4 166/2/4 168/2/4
f 166/2/4 167/2/4 168/2/4
f 168/2/4 167/2/4 169/2/4
f 169/4/4 170/4/4 174/4/4
f 174/4/4 170/4/4 175/4/4
f 172/1/4 173/1/4 176/1/4
f 171/2/4 172/2/4 176/2/4
f 173/3/4 174/3/4 177/3/4
f 176/1/4 173/1/4 177/1/4
f 177/3/4 174/3/4 178/3/4
f 171/2/4 176/2/4 179/2/4
f 176/3/4 177/3/4 179/3/4
f 177/1/4 178/1/4 180/1/4
f 179/3/4 177/3/4 180/3/4
f 180/1/4 178/1/4 181/1/4
f 171/2/4 179/2/4 182/2/4
f 182/1/4 183/1/4 184/1/4
f 171/2/4 182/2/4 186/2/4
f 184/1/4 185/1/4 187/1/4
f 186/2/4 182/2/4 187/2/4
f 182/1/4 184/1/4 187/1/4
f 187/1/4 185/1/4 188/1/4
f 186/4/4 187/4/4 189/4/4
f 189/4/4 187/4/4 190/4/4
f 191/2/4 192/2/4 193/2/4
f 193/2/4 192/2/4 194/2/4
f 198/4/5 196/4/5 195/4/5
f 199/2/5 198/2/5 197/2/5
f 200/4/5 196/4/5 198/4/5
f 200/2/5 198/2/5 199/2/5
f 201/4/5 196/4/5 200/4/5
f 203/2/5 199/2/5 197/2/5
f 204/3/5 200/3/5 199/3/5
f 204/2/5 199/2/5 203/2/5
f 205/3/5 200/3/5 204/3/5
f 207/4/5 203/4/5 202/4/5
f 208/2/5 204/2/5 203/2/5
f 208/4/5 203/4/5 207/4/5
f 208/2/5 205/2/5 204/2/5
f 209/2/5 205/2/5 208/2/5
f 210/2/5 205/2/5 209/2/5
f 211/4/5 206/4/5 205/4/5
f 211/2/5 205/2/5 210/2/5
f 212/4/5 206/4/5 211/4/5
f 213/2/5 210/2/5 209/2/5
f 214/2/5 210/2/5 213/2/5
f 217/1/5 216/1/5 215/1/5
f 218/1/5 216/1/5 217/1/5
f 221/1/5 220/1/5 219/1/5
f 222/1/5 220/1/5 221/1/5
f 223/4/6 224/4/6 227/4/6
f 225/2/6 226/2/6 228/2/6
f 228/2/6 226/2/6 229/2/6
f 229/2/6 226/2/6 230/2/6
f 227/4/6 224/4/6 231/4/6
f 231/4/6 224/4/6 232/4/6
f 229/3/6 230/3/6 235/3/6
f 230/3/6 231/3/6 235/3/6
f 235/3/6 231/3/6 236/3/6
f 236/3/6 231/3/6 237/3/6
f 233/4/6 234/4/6 239/4/6
f 239/4/6 234/4/6 240/4/6
f 235/2/6 236/2/6 241/2/6
f 241/2/6 236/2/6 242/2/6
f 237/4/6 238/4/6 243/4/6
f 243/4/6 238/4/6 244/4/6
f 247/2/6 248/2/6 251/2/6
f 251/2/6 248/2/6 252/2/6
f 249/2/6 250/2/6 253/2/6
f 253/2/6 250/2/6 254/2/6
f 245/2/6 246/2/6 255/2/6
f 255/2/6 246/2/6 256/2/6
f 257/1/6 258/1/6 259/1/6
f 259/1/6 258/1/6 260/1/6
f 261/2/6 262/2/6 263/2/6
f 261/2/6 263/2/6 265/2/6
f 263/4/6 264/4/6 266/4/6
f 265/2/6 263/2/6 266/2/6
f 266/4/6 264/4/6 267/4/6
f 267/4/6 264/4/6 270/4/6
f 270/4/6 264/4/6 271/4/6
f 268/1/6 269/1/6 272/1/6
f 272/1/6 269/1/6 273/1/6
f 274/1/6 275/1/6 276/1/6
f 276/1/6 275/1/6 277/1/6
f 277/1/6 275/1/6 281/1/6
f 278/2/6 279/2/6 282/2/6
f 282/2/6 279/2/6 283/2/6
f 280/3/6 281/3/6 284/3/6
f 281/1/6 275/1/6 285/1/6
f 284/3/6 281/3/6 285/3/6
f 285/1/6 275/1/6 286/1/6
f 283/2/6 284/2/6 287/2/6
f 287/2/6 284/2/6 288/2/6
f 289/4/6 290/4/6 291/4/6
f 291/4/6 290/4/6 292/4/6
