# MagicaVoxel @ Ephtracy

# group
o Mecha01_Leg1_R

# material
mtllib -7-Mecha01_Leg1_R.mtl
usemtl palette

# normals
vn -1 0 0
vn 1 0 0
vn 0 0 1
vn 0 0 -1
vn 0 -1 0
vn 0 1 0

# texcoords
vt 0.595703 0.5
vt 0.623047 0.5
vt 0.658203 0.5
vt 0.783203 0.5

# verts
v -0.7 0.5 0.6
v -0.7 0.5 0.4
v -0.7 0.6 0.6
v -0.7 0.6 0.4
v -0.7 0.8 0.6
v -0.7 0.8 0.4
v -0.7 0.9 0.6
v -0.7 0.9 0.4
v -0.7 1 0.6
v -0.7 1 0.4
v -0.6 0.8 0.6
v -0.6 0.8 0.4
v -0.6 0.9 0.6
v -0.6 0.9 0.4
v -0.5 0.6 0.8
v -0.5 0.6 0.6
v -0.5 0.6 0.4
v -0.5 0.6 0.2
v -0.5 0.7 0.4
v -0.5 0.7 0.3
v -0.5 0.7 0.2
v -0.5 0.8 0.6
v -0.5 0.8 0.4
v -0.5 0.8 0.3
v -0.5 0.8 0.2
v -0.5 0.9 0.4
v -0.5 1 0.8
v -0.5 1 0.6
v -0.5 1 0.5
v -0.5 1 0.4
v -0.5 1 0.2
v -0.5 1.2 0.6
v -0.5 1.2 0.4
v -0.2 0.9 0.6
v -0.2 0.9 0.5
v -0.2 1 0.6
v -0.2 1 0.5
v -0.5 0.5 0.6
v -0.5 0.5 0.4
v -0.5 0.6 0.6
v -0.5 0.6 0.4
v -0.4 0.7 0.4
v -0.4 0.7 0.3
v -0.4 0.8 0.4
v -0.4 0.8 0.3
v -0.4 0.9 0.7
v -0.4 0.9 0.6
v -0.4 1 0.7
v -0.4 1 0.6
v -0.3 0.6 0.4
v -0.3 0.6 0.2
v -0.3 0.7 0.4
v -0.3 0.7 0.2
v -0.3 0.8 0.4
v -0.3 0.8 0.2
v -0.3 0.9 0.6
v -0.3 0.9 0.5
v -0.3 1 0.5
v -0.3 1 0.4
v -0.3 1 0.2
v -0.3 1.2 0.6
v -0.3 1.2 0.4
v -0.2 0.7 0.6
v -0.2 0.7 0.4
v -0.2 0.8 0.7
v -0.2 0.8 0.6
v -0.2 0.8 0.4
v -0.2 0.9 0.7
v -0.2 0.9 0.6
v -0.1 0.6 0.8
v -0.1 0.6 0.4
v -0.1 0.7 0.6
v -0.1 0.7 0.4
v -0.1 0.8 0.7
v -0.1 0.8 0.6
v -0.1 0.8 0.4
v -0.1 1 0.8
v -0.1 1 0.7
v -0.1 1 0.6
v -0.1 1 0.4
v -0.5 0.6 0.8
v -0.5 1 0.8
v -0.1 0.6 0.8
v -0.1 1 0.8
v -0.7 0.5 0.6
v -0.7 0.6 0.6
v -0.7 0.8 0.6
v -0.7 0.9 0.6
v -0.7 1 0.6
v -0.6 0.8 0.6
v -0.6 0.9 0.6
v -0.6 1 0.6
v -0.5 0.5 0.6
v -0.5 0.6 0.6
v -0.5 0.8 0.6
v -0.5 1 0.6
v -0.5 1.2 0.6
v -0.4 0.9 0.6
v -0.4 1 0.6
v -0.3 0.9 0.6
v -0.3 1.2 0.6
v -0.2 0.8 0.6
v -0.2 0.9 0.6
v -0.2 1 0.6
v -0.1 0.8 0.6
v -0.1 1 0.6
v -0.3 0.9 0.5
v -0.3 1 0.5
v -0.2 0.9 0.5
v -0.2 1 0.5
v -0.4 0.9 0.7
v -0.4 1 0.7
v -0.2 0.8 0.7
v -0.2 0.9 0.7
v -0.1 0.8 0.7
v -0.1 1 0.7
v -0.2 0.7 0.6
v -0.2 0.8 0.6
v -0.1 0.7 0.6
v -0.1 0.8 0.6
v -0.7 0.5 0.4
v -0.7 0.6 0.4
v -0.7 0.8 0.4
v -0.7 0.9 0.4
v -0.7 1 0.4
v -0.6 0.8 0.4
v -0.6 0.9 0.4
v -0.5 0.5 0.4
v -0.5 0.6 0.4
v -0.5 0.7 0.4
v -0.5 0.8 0.4
v -0.5 0.9 0.4
v -0.5 1 0.4
v -0.5 1.2 0.4
v -0.4 0.7 0.4
v -0.4 0.8 0.4
v -0.3 0.6 0.4
v -0.3 0.7 0.4
v -0.3 0.8 0.4
v -0.3 1 0.4
v -0.3 1.2 0.4
v -0.2 0.7 0.4
v -0.2 0.8 0.4
v -0.1 0.6 0.4
v -0.1 0.7 0.4
v -0.1 0.8 0.4
v -0.1 1 0.4
v -0.5 0.7 0.3
v -0.5 0.8 0.3
v -0.4 0.7 0.3
v -0.4 0.8 0.3
v -0.5 0.6 0.2
v -0.5 0.7 0.2
v -0.5 0.8 0.2
v -0.5 1 0.2
v -0.3 0.6 0.2
v -0.3 0.7 0.2
v -0.3 0.8 0.2
v -0.3 1 0.2
v -0.7 0.5 0.6
v -0.5 0.5 0.6
v -0.7 0.5 0.4
v -0.5 0.5 0.4
v -0.5 0.6 0.8
v -0.1 0.6 0.8
v -0.5 0.6 0.6
v -0.5 0.6 0.4
v -0.3 0.6 0.4
v -0.1 0.6 0.4
v -0.5 0.6 0.2
v -0.3 0.6 0.2
v -0.2 0.8 0.6
v -0.1 0.8 0.6
v -0.4 0.8 0.4
v -0.3 0.8 0.4
v -0.2 0.8 0.4
v -0.1 0.8 0.4
v -0.5 0.8 0.3
v -0.4 0.8 0.3
v -0.5 0.8 0.2
v -0.3 0.8 0.2
v -0.7 0.9 0.6
v -0.6 0.9 0.6
v -0.7 0.9 0.4
v -0.6 0.9 0.4
v -0.2 0.7 0.6
v -0.1 0.7 0.6
v -0.4 0.7 0.4
v -0.3 0.7 0.4
v -0.2 0.7 0.4
v -0.1 0.7 0.4
v -0.5 0.7 0.3
v -0.4 0.7 0.3
v -0.5 0.7 0.2
v -0.3 0.7 0.2
v -0.2 0.8 0.7
v -0.1 0.8 0.7
v -0.7 0.8 0.6
v -0.6 0.8 0.6
v -0.2 0.8 0.6
v -0.1 0.8 0.6
v -0.7 0.8 0.4
v -0.6 0.8 0.4
v -0.4 0.9 0.7
v -0.2 0.9 0.7
v -0.4 0.9 0.6
v -0.3 0.9 0.6
v -0.2 0.9 0.6
v -0.3 0.9 0.5
v -0.2 0.9 0.5
v -0.5 1 0.8
v -0.1 1 0.8
v -0.4 1 0.7
v -0.1 1 0.7
v -0.7 1 0.6
v -0.6 1 0.6
v -0.5 1 0.6
v -0.4 1 0.6
v -0.2 1 0.6
v -0.1 1 0.6
v -0.6 1 0.5
v -0.5 1 0.5
v -0.3 1 0.5
v -0.2 1 0.5
v -0.7 1 0.4
v -0.5 1 0.4
v -0.3 1 0.4
v -0.1 1 0.4
v -0.5 1 0.2
v -0.3 1 0.2
v -0.5 1.2 0.6
v -0.3 1.2 0.6
v -0.5 1.2 0.4
v -0.3 1.2 0.4

# faces
f 3/4/1 2/4/1 1/4/1
f 4/4/1 2/4/1 3/4/1
f 5/1/1 4/1/1 3/1/1
f 6/1/1 4/1/1 5/1/1
f 9/1/1 8/1/1 7/1/1
f 10/1/1 8/1/1 9/1/1
f 13/3/1 12/3/1 11/3/1
f 14/3/1 12/3/1 13/3/1
f 19/2/1 18/2/1 17/2/1
f 20/2/1 18/2/1 19/2/1
f 21/2/1 18/2/1 20/2/1
f 22/2/1 16/2/1 15/2/1
f 23/3/1 20/3/1 19/3/1
f 24/3/1 20/3/1 23/3/1
f 26/1/1 24/1/1 23/1/1
f 26/1/1 25/1/1 24/1/1
f 27/2/1 22/2/1 15/2/1
f 28/2/1 22/2/1 27/2/1
f 30/1/1 25/1/1 26/1/1
f 31/1/1 25/1/1 30/1/1
f 32/4/1 29/4/1 28/4/1
f 32/4/1 30/4/1 29/4/1
f 33/4/1 30/4/1 32/4/1
f 36/1/1 35/1/1 34/1/1
f 37/1/1 35/1/1 36/1/1
f 38/4/2 39/4/2 40/4/2
f 40/4/2 39/4/2 41/4/2
f 42/3/2 43/3/2 44/3/2
f 44/3/2 43/3/2 45/3/2
f 46/2/2 47/2/2 48/2/2
f 48/2/2 47/2/2 49/2/2
f 50/2/2 51/2/2 52/2/2
f 52/2/2 51/2/2 53/2/2
f 56/4/2 57/4/2 58/4/2
f 54/1/2 55/1/2 59/1/2
f 59/1/2 55/1/2 60/1/2
f 56/4/2 58/4/2 61/4/2
f 58/4/2 59/4/2 61/4/2
f 61/4/2 59/4/2 62/4/2
f 63/3/2 64/3/2 66/3/2
f 66/3/2 64/3/2 67/3/2
f 65/4/2 66/4/2 68/4/2
f 68/4/2 66/4/2 69/4/2
f 70/2/2 71/2/2 72/2/2
f 72/2/2 71/2/2 73/2/2
f 70/2/2 72/2/2 74/2/2
f 74/2/2 72/2/2 75/2/2
f 70/2/2 74/2/2 77/2/2
f 77/2/2 74/2/2 78/2/2
f 75/1/2 76/1/2 79/1/2
f 79/1/2 76/1/2 80/1/2
f 83/2/3 82/2/3 81/2/3
f 84/2/3 82/2/3 83/2/3
f 90/1/3 87/1/3 86/1/3
f 91/1/3 89/1/3 88/1/3
f 92/1/3 89/1/3 91/1/3
f 93/4/3 86/4/3 85/4/3
f 94/1/3 90/1/3 86/1/3
f 94/4/3 86/4/3 93/4/3
f 95/3/3 91/3/3 90/3/3
f 95/1/3 90/1/3 94/1/3
f 95/3/3 92/3/3 91/3/3
f 96/3/3 92/3/3 95/3/3
f 99/4/3 97/4/3 96/4/3
f 100/4/3 99/4/3 98/4/3
f 101/4/3 97/4/3 99/4/3
f 101/4/3 99/4/3 100/4/3
f 105/1/3 103/1/3 102/1/3
f 105/1/3 104/1/3 103/1/3
f 106/1/3 104/1/3 105/1/3
f 109/1/3 108/1/3 107/1/3
f 110/1/3 108/1/3 109/1/3
f 111/2/4 112/2/4 114/2/4
f 113/2/4 114/2/4 115/2/4
f 114/2/4 112/2/4 116/2/4
f 115/2/4 114/2/4 116/2/4
f 117/2/4 118/2/4 119/2/4
f 119/2/4 118/2/4 120/2/4
f 122/1/4 123/1/4 126/1/4
f 124/1/4 125/1/4 127/1/4
f 121/4/4 122/4/4 128/4/4
f 122/1/4 126/1/4 129/1/4
f 128/4/4 122/4/4 129/4/4
f 129/1/4 126/1/4 130/1/4
f 126/3/4 127/3/4 131/3/4
f 130/1/4 126/1/4 131/1/4
f 127/1/4 125/1/4 132/1/4
f 131/3/4 127/3/4 132/3/4
f 132/1/4 125/1/4 133/1/4
f 135/3/4 136/3/4 138/3/4
f 138/3/4 136/3/4 139/3/4
f 133/4/4 134/4/4 140/4/4
f 140/4/4 134/4/4 141/4/4
f 138/3/4 139/3/4 142/3/4
f 137/2/4 138/2/4 142/2/4
f 139/1/4 140/1/4 143/1/4
f 142/3/4 139/3/4 143/3/4
f 137/2/4 142/2/4 144/2/4
f 144/2/4 142/2/4 145/2/4
f 143/1/4 140/1/4 146/1/4
f 146/1/4 140/1/4 147/1/4
f 148/3/4 149/3/4 150/3/4
f 150/3/4 149/3/4 151/3/4
f 152/2/4 153/2/4 156/2/4
f 156/2/4 153/2/4 157/2/4
f 154/1/4 155/1/4 158/1/4
f 158/1/4 155/1/4 159/1/4
f 162/4/5 161/4/5 160/4/5
f 163/4/5 161/4/5 162/4/5
f 166/2/5 165/2/5 164/2/5
f 167/2/5 165/2/5 166/2/5
f 168/2/5 165/2/5 167/2/5
f 169/2/5 165/2/5 168/2/5
f 170/2/5 168/2/5 167/2/5
f 171/2/5 168/2/5 170/2/5
f 176/1/5 173/1/5 172/1/5
f 177/1/5 173/1/5 176/1/5
f 179/1/5 175/1/5 174/1/5
f 180/1/5 179/1/5 178/1/5
f 181/1/5 175/1/5 179/1/5
f 181/1/5 179/1/5 180/1/5
f 184/1/5 183/1/5 182/1/5
f 185/1/5 183/1/5 184/1/5
f 186/2/6 187/2/6 190/2/6
f 190/2/6 187/2/6 191/2/6
f 188/2/6 189/2/6 193/2/6
f 192/2/6 193/2/6 194/2/6
f 193/2/6 189/2/6 195/2/6
f 194/2/6 193/2/6 195/2/6
f 196/2/6 197/2/6 200/2/6
f 200/2/6 197/2/6 201/2/6
f 198/1/6 199/1/6 202/1/6
f 202/1/6 199/1/6 203/1/6
f 204/4/6 205/4/6 206/4/6
f 206/4/6 205/4/6 207/4/6
f 207/4/6 205/4/6 208/4/6
f 207/4/6 208/4/6 209/4/6
f 209/4/6 208/4/6 210/4/6
f 211/2/6 212/2/6 213/2/6
f 213/2/6 212/2/6 214/2/6
f 211/2/6 213/2/6 217/2/6
f 217/2/6 213/2/6 218/2/6
f 215/1/6 216/1/6 221/1/6
f 216/3/6 217/3/6 221/3/6
f 221/3/6 217/3/6 222/3/6
f 219/1/6 220/1/6 224/1/6
f 221/1/6 222/1/6 225/1/6
f 215/1/6 221/1/6 225/1/6
f 225/1/6 222/1/6 226/1/6
f 223/1/6 224/1/6 227/1/6
f 224/1/6 220/1/6 228/1/6
f 227/1/6 224/1/6 228/1/6
f 226/1/6 227/1/6 229/1/6
f 229/1/6 227/1/6 230/1/6
f 231/4/6 232/4/6 233/4/6
f 233/4/6 232/4/6 234/4/6
