# MagicaVoxel @ Ephtracy

# group
o Sword

# material
mtllib DungeonCrawler_Character-0-Sword.mtl
usemtl palette

# normals
vn -1 0 0
vn 1 0 0
vn 0 0 1
vn 0 0 -1
vn 0 -1 0
vn 0 1 0

# texcoords
vt 0.689453 0.5
vt 0.693359 0.5
vt 0.697266 0.5
vt 0.728516 0.5

# verts
v -0.15 -0.15 -0.3
v -0.15 -0.15 -0.4
v -0.15 0.15 -0.3
v -0.15 0.15 -0.4
v -0.05 -0.25 -0.3
v -0.05 -0.25 -0.4
v -0.05 -0.15 0.7
v -0.05 -0.15 0.2
v -0.05 -0.15 -0.3
v -0.05 -0.15 -0.4
v -0.05 -0.05 0.8
v -0.05 -0.05 0.7
v -0.05 -0.05 0.5
v -0.05 -0.05 0.2
v -0.05 -0.05 -0.3
v -0.05 -0.05 -0.4
v -0.05 -0.05 -0.8
v -0.05 0.05 0.8
v -0.05 0.05 0.7
v -0.05 0.05 0.5
v -0.05 0.05 0.3
v -0.05 0.05 0.2
v -0.05 0.05 -0.2
v -0.05 0.05 -0.3
v -0.05 0.05 -0.4
v -0.05 0.05 -0.8
v -0.05 0.15 0.7
v -0.05 0.15 0.3
v -0.05 0.15 0.2
v -0.05 0.15 -0.2
v -0.05 0.15 -0.3
v -0.05 0.15 -0.4
v -0.05 0.25 -0.3
v -0.05 0.25 -0.4
v 0.05 -0.25 -0.3
v 0.05 -0.25 -0.4
v 0.05 -0.15 0.7
v 0.05 -0.15 0.2
v 0.05 -0.15 -0.3
v 0.05 -0.15 -0.4
v 0.05 -0.05 0.8
v 0.05 -0.05 0.7
v 0.05 -0.05 0.5
v 0.05 -0.05 0.2
v 0.05 -0.05 -0.3
v 0.05 -0.05 -0.4
v 0.05 -0.05 -0.8
v 0.05 0.05 0.8
v 0.05 0.05 0.7
v 0.05 0.05 0.5
v 0.05 0.05 0.3
v 0.05 0.05 0.2
v 0.05 0.05 -0.2
v 0.05 0.05 -0.3
v 0.05 0.05 -0.4
v 0.05 0.05 -0.8
v 0.05 0.15 0.7
v 0.05 0.15 0.3
v 0.05 0.15 0.2
v 0.05 0.15 -0.2
v 0.05 0.15 -0.3
v 0.05 0.15 -0.4
v 0.05 0.25 -0.3
v 0.05 0.25 -0.4
v 0.15 -0.15 -0.3
v 0.15 -0.15 -0.4
v 0.15 0.15 -0.3
v 0.15 0.15 -0.4
v -0.05 -0.05 0.8
v -0.05 0.05 0.8
v 0.05 -0.05 0.8
v 0.05 0.05 0.8
v -0.05 -0.15 0.7
v -0.05 -0.05 0.7
v -0.05 0.05 0.7
v -0.05 0.15 0.7
v 0.05 -0.15 0.7
v 0.05 -0.05 0.7
v 0.05 0.05 0.7
v 0.05 0.15 0.7
v -0.15 -0.15 -0.3
v -0.15 0.15 -0.3
v -0.05 -0.25 -0.3
v -0.05 -0.15 -0.3
v -0.05 -0.05 -0.3
v -0.05 0.05 -0.3
v -0.05 0.15 -0.3
v -0.05 0.25 -0.3
v 0.05 -0.25 -0.3
v 0.05 -0.15 -0.3
v 0.05 -0.05 -0.3
v 0.05 0.05 -0.3
v 0.05 0.15 -0.3
v 0.05 0.25 -0.3
v 0.15 -0.15 -0.3
v 0.15 0.15 -0.3
v -0.15 -0.15 -0.4
v -0.15 0.15 -0.4
v -0.05 -0.25 -0.4
v -0.05 -0.15 -0.4
v -0.05 -0.05 -0.4
v -0.05 0.05 -0.4
v -0.05 0.15 -0.4
v -0.05 0.25 -0.4
v 0.05 -0.25 -0.4
v 0.05 -0.15 -0.4
v 0.05 -0.05 -0.4
v 0.05 0.05 -0.4
v 0.05 0.15 -0.4
v 0.05 0.25 -0.4
v 0.15 -0.15 -0.4
v 0.15 0.15 -0.4
v -0.05 -0.05 -0.8
v -0.05 0.05 -0.8
v 0.05 -0.05 -0.8
v 0.05 0.05 -0.8
v -0.05 -0.25 -0.3
v 0.05 -0.25 -0.3
v -0.05 -0.25 -0.4
v 0.05 -0.25 -0.4
v -0.05 -0.15 0.7
v 0.05 -0.15 0.7
v -0.05 -0.15 0.2
v 0.05 -0.15 0.2
v -0.15 -0.15 -0.3
v -0.05 -0.15 -0.3
v 0.05 -0.15 -0.3
v 0.15 -0.15 -0.3
v -0.15 -0.15 -0.4
v -0.05 -0.15 -0.4
v 0.05 -0.15 -0.4
v 0.15 -0.15 -0.4
v -0.05 -0.05 0.8
v 0.05 -0.05 0.8
v -0.05 -0.05 0.7
v 0.05 -0.05 0.7
v -0.05 -0.05 -0.4
v 0.05 -0.05 -0.4
v -0.05 -0.05 -0.8
v 0.05 -0.05 -0.8
v -0.05 0.05 0.8
v 0.05 0.05 0.8
v -0.05 0.05 0.7
v 0.05 0.05 0.7
v -0.05 0.05 -0.4
v 0.05 0.05 -0.4
v -0.05 0.05 -0.8
v 0.05 0.05 -0.8
v -0.05 0.15 0.7
v 0.05 0.15 0.7
v -0.05 0.15 0.3
v 0.05 0.15 0.3
v -0.05 0.15 0.2
v 0.05 0.15 0.2
v -0.05 0.15 -0.2
v 0.05 0.15 -0.2
v -0.15 0.15 -0.3
v -0.05 0.15 -0.3
v 0.05 0.15 -0.3
v 0.15 0.15 -0.3
v -0.15 0.15 -0.4
v -0.05 0.15 -0.4
v 0.05 0.15 -0.4
v 0.15 0.15 -0.4
v -0.05 0.25 -0.3
v 0.05 0.25 -0.3
v -0.05 0.25 -0.4
v 0.05 0.25 -0.4

# faces
f 3/4/1 2/4/1 1/4/1
f 4/4/1 2/4/1 3/4/1
f 9/4/1 6/4/1 5/4/1
f 10/4/1 6/4/1 9/4/1
f 12/3/1 8/3/1 7/3/1
f 13/3/1 8/3/1 12/3/1
f 14/2/1 9/2/1 8/2/1
f 14/3/1 8/3/1 13/3/1
f 15/2/1 9/2/1 14/2/1
f 18/3/1 12/3/1 11/3/1
f 19/2/1 13/2/1 12/2/1
f 19/3/1 12/3/1 18/3/1
f 20/1/1 15/1/1 14/1/1
f 20/2/1 13/2/1 19/2/1
f 20/1/1 14/1/1 13/1/1
f 21/1/1 15/1/1 20/1/1
f 22/1/1 15/1/1 21/1/1
f 23/1/1 15/1/1 22/1/1
f 24/1/1 15/1/1 23/1/1
f 25/4/1 17/4/1 16/4/1
f 26/4/1 17/4/1 25/4/1
f 27/3/1 20/3/1 19/3/1
f 27/3/1 21/3/1 20/3/1
f 28/2/1 22/2/1 21/2/1
f 28/3/1 21/3/1 27/3/1
f 29/3/1 23/3/1 22/3/1
f 29/2/1 22/2/1 28/2/1
f 30/2/1 24/2/1 23/2/1
f 30/3/1 23/3/1 29/3/1
f 31/2/1 24/2/1 30/2/1
f 33/4/1 32/4/1 31/4/1
f 34/4/1 32/4/1 33/4/1
f 35/4/2 36/4/2 39/4/2
f 39/4/2 36/4/2 40/4/2
f 37/3/2 38/3/2 42/3/2
f 42/3/2 38/3/2 43/3/2
f 38/2/2 39/2/2 44/2/2
f 43/3/2 38/3/2 44/3/2
f 44/2/2 39/2/2 45/2/2
f 41/3/2 42/3/2 48/3/2
f 42/2/2 43/2/2 49/2/2
f 48/3/2 42/3/2 49/3/2
f 44/1/2 45/1/2 50/1/2
f 49/2/2 43/2/2 50/2/2
f 43/1/2 44/1/2 50/1/2
f 50/1/2 45/1/2 51/1/2
f 51/1/2 45/1/2 52/1/2
f 52/1/2 45/1/2 53/1/2
f 53/1/2 45/1/2 54/1/2
f 46/4/2 47/4/2 55/4/2
f 55/4/2 47/4/2 56/4/2
f 49/3/2 50/3/2 57/3/2
f 50/3/2 51/3/2 57/3/2
f 51/2/2 52/2/2 58/2/2
f 57/3/2 51/3/2 58/3/2
f 52/3/2 53/3/2 59/3/2
f 58/2/2 52/2/2 59/2/2
f 53/2/2 54/2/2 60/2/2
f 59/3/2 53/3/2 60/3/2
f 60/2/2 54/2/2 61/2/2
f 61/4/2 62/4/2 63/4/2
f 63/4/2 62/4/2 64/4/2
f 65/4/2 66/4/2 67/4/2
f 67/4/2 66/4/2 68/4/2
f 71/3/3 70/3/3 69/3/3
f 72/3/3 70/3/3 71/3/3
f 77/3/3 74/3/3 73/3/3
f 78/3/3 74/3/3 77/3/3
f 79/3/3 76/3/3 75/3/3
f 80/3/3 76/3/3 79/3/3
f 84/4/3 82/4/3 81/4/3
f 85/4/3 82/4/3 84/4/3
f 86/4/3 82/4/3 85/4/3
f 87/4/3 82/4/3 86/4/3
f 89/4/3 84/4/3 83/4/3
f 90/4/3 84/4/3 89/4/3
f 93/4/3 88/4/3 87/4/3
f 94/4/3 88/4/3 93/4/3
f 95/4/3 92/4/3 91/4/3
f 95/4/3 93/4/3 92/4/3
f 95/4/3 91/4/3 90/4/3
f 96/4/3 93/4/3 95/4/3
f 97/4/4 98/4/4 100/4/4
f 100/4/4 98/4/4 101/4/4
f 101/4/4 98/4/4 102/4/4
f 102/4/4 98/4/4 103/4/4
f 99/4/4 100/4/4 105/4/4
f 100/4/4 101/4/4 105/4/4
f 105/4/4 101/4/4 106/4/4
f 106/4/4 101/4/4 107/4/4
f 103/4/4 104/4/4 108/4/4
f 102/4/4 103/4/4 108/4/4
f 108/4/4 104/4/4 109/4/4
f 109/4/4 104/4/4 110/4/4
f 106/4/4 107/4/4 111/4/4
f 108/4/4 109/4/4 111/4/4
f 107/4/4 108/4/4 111/4/4
f 111/4/4 109/4/4 112/4/4
f 113/4/4 114/4/4 115/4/4
f 115/4/4 114/4/4 116/4/4
f 119/4/5 118/4/5 117/4/5
f 120/4/5 118/4/5 119/4/5
f 123/3/5 122/3/5 121/3/5
f 124/3/5 122/3/5 123/3/5
f 126/2/5 124/2/5 123/2/5
f 127/2/5 124/2/5 126/2/5
f 129/4/5 126/4/5 125/4/5
f 130/4/5 126/4/5 129/4/5
f 131/4/5 128/4/5 127/4/5
f 132/4/5 128/4/5 131/4/5
f 135/3/5 134/3/5 133/3/5
f 136/3/5 134/3/5 135/3/5
f 139/4/5 138/4/5 137/4/5
f 140/4/5 138/4/5 139/4/5
f 141/3/6 142/3/6 143/3/6
f 143/3/6 142/3/6 144/3/6
f 145/4/6 146/4/6 147/4/6
f 147/4/6 146/4/6 148/4/6
f 149/3/6 150/3/6 151/3/6
f 151/3/6 150/3/6 152/3/6
f 151/2/6 152/2/6 153/2/6
f 153/2/6 152/2/6 154/2/6
f 153/3/6 154/3/6 155/3/6
f 155/3/6 154/3/6 156/3/6
f 155/2/6 156/2/6 158/2/6
f 158/2/6 156/2/6 159/2/6
f 157/4/6 158/4/6 161/4/6
f 161/4/6 158/4/6 162/4/6
f 159/4/6 160/4/6 163/4/6
f 163/4/6 160/4/6 164/4/6
f 165/4/6 166/4/6 167/4/6
f 167/4/6 166/4/6 168/4/6
